<mxfile host="app.diagrams.net" modified="2024-06-06T21:13:44.556Z" agent="Mozilla/5.0 (X11; Linux x86_64) AppleWebKit/537.36 (KHTML, like Gecko) Chrome/125.0.0.0 Safari/537.36" etag="jrX7Y0eToXTKpv7yHzE5" version="24.4.10" type="device">
  <diagram name="Página-1" id="v5zbuf2WOyBBfdB4b8hW">
    <mxGraphModel dx="1652" dy="798" grid="1" gridSize="10" guides="1" tooltips="1" connect="1" arrows="1" fold="1" page="1" pageScale="1" pageWidth="827" pageHeight="1169" math="0" shadow="0">
      <root>
        <mxCell id="0" />
        <mxCell id="1" parent="0" />
        <mxCell id="oydoxWEv9PunjYlYWt40-1" value="" style="whiteSpace=wrap;html=1;aspect=fixed;" parent="1" vertex="1">
          <mxGeometry x="140" y="95" width="360" height="360" as="geometry" />
        </mxCell>
        <mxCell id="oydoxWEv9PunjYlYWt40-2" value="" style="outlineConnect=0;dashed=0;verticalLabelPosition=bottom;verticalAlign=top;align=center;html=1;shape=mxgraph.aws3.ec2;fillColor=#F58534;gradientColor=none;" parent="1" vertex="1">
          <mxGeometry x="90" y="40" width="76.5" height="93" as="geometry" />
        </mxCell>
        <mxCell id="oydoxWEv9PunjYlYWt40-4" value="" style="shape=image;verticalLabelPosition=bottom;labelBackgroundColor=default;verticalAlign=top;aspect=fixed;imageAspect=0;image=https://upload.wikimedia.org/wikipedia/commons/thumb/f/f3/Apache_Spark_logo.svg/1200px-Apache_Spark_logo.svg.png;" parent="1" vertex="1">
          <mxGeometry x="214.07" y="210" width="211.86" height="110" as="geometry" />
        </mxCell>
        <mxCell id="oydoxWEv9PunjYlYWt40-5" value="" style="shape=flexArrow;endArrow=classic;html=1;rounded=0;" parent="1" edge="1">
          <mxGeometry width="50" height="50" relative="1" as="geometry">
            <mxPoint x="502" y="458" as="sourcePoint" />
            <mxPoint x="562" y="538" as="targetPoint" />
            <Array as="points">
              <mxPoint x="542" y="513" />
            </Array>
          </mxGeometry>
        </mxCell>
        <mxCell id="oydoxWEv9PunjYlYWt40-33" style="edgeStyle=orthogonalEdgeStyle;rounded=0;orthogonalLoop=1;jettySize=auto;html=1;" parent="1" source="oydoxWEv9PunjYlYWt40-6" target="oydoxWEv9PunjYlYWt40-27" edge="1">
          <mxGeometry relative="1" as="geometry">
            <Array as="points">
              <mxPoint x="1435" y="985" />
              <mxPoint x="1435" y="970" />
            </Array>
          </mxGeometry>
        </mxCell>
        <mxCell id="oydoxWEv9PunjYlYWt40-36" style="edgeStyle=orthogonalEdgeStyle;rounded=0;orthogonalLoop=1;jettySize=auto;html=1;" parent="1" source="oydoxWEv9PunjYlYWt40-6" target="oydoxWEv9PunjYlYWt40-48" edge="1">
          <mxGeometry relative="1" as="geometry">
            <mxPoint x="925" y="1540.0000000000005" as="targetPoint" />
            <Array as="points">
              <mxPoint x="930" y="1480" />
              <mxPoint x="930" y="1480" />
            </Array>
          </mxGeometry>
        </mxCell>
        <mxCell id="oydoxWEv9PunjYlYWt40-6" value="" style="rounded=0;whiteSpace=wrap;html=1;" parent="1" vertex="1">
          <mxGeometry x="560" y="540" width="730" height="890" as="geometry" />
        </mxCell>
        <mxCell id="oydoxWEv9PunjYlYWt40-7" value="" style="shape=image;verticalLabelPosition=bottom;labelBackgroundColor=default;verticalAlign=top;aspect=fixed;imageAspect=0;image=https://upload.wikimedia.org/wikipedia/commons/thumb/f/f3/Apache_Spark_logo.svg/1200px-Apache_Spark_logo.svg.png;" parent="1" vertex="1">
          <mxGeometry x="857.59" y="558" width="134.82" height="70" as="geometry" />
        </mxCell>
        <mxCell id="oydoxWEv9PunjYlYWt40-14" style="edgeStyle=orthogonalEdgeStyle;rounded=0;orthogonalLoop=1;jettySize=auto;html=1;" parent="1" source="oydoxWEv9PunjYlYWt40-8" target="oydoxWEv9PunjYlYWt40-13" edge="1">
          <mxGeometry relative="1" as="geometry" />
        </mxCell>
        <mxCell id="oydoxWEv9PunjYlYWt40-8" value="" style="rounded=0;whiteSpace=wrap;html=1;fillColor=#663300;fontColor=#ffffff;strokeColor=#CC6600;strokeWidth=1;" parent="1" vertex="1">
          <mxGeometry x="610" y="650" width="630" height="190" as="geometry" />
        </mxCell>
        <mxCell id="oydoxWEv9PunjYlYWt40-9" value="Conversão para .wav" style="rounded=0;whiteSpace=wrap;html=1;fillColor=#0050ef;fontColor=#ffffff;strokeColor=#001DBC;" parent="1" vertex="1">
          <mxGeometry x="782.5" y="670" width="285" height="60" as="geometry" />
        </mxCell>
        <mxCell id="oydoxWEv9PunjYlYWt40-11" value="Extração do texto da música" style="rounded=0;whiteSpace=wrap;html=1;fillColor=#0050ef;fontColor=#ffffff;strokeColor=#001DBC;" parent="1" vertex="1">
          <mxGeometry x="780" y="755" width="290" height="60" as="geometry" />
        </mxCell>
        <mxCell id="oydoxWEv9PunjYlYWt40-12" value="BRONZE" style="text;strokeColor=none;fillColor=none;align=left;verticalAlign=middle;spacingLeft=4;spacingRight=4;overflow=hidden;points=[[0,0.5],[1,0.5]];portConstraint=eastwest;rotatable=0;whiteSpace=wrap;html=1;" parent="1" vertex="1">
          <mxGeometry x="1140" y="650" width="80" height="30" as="geometry" />
        </mxCell>
        <mxCell id="oydoxWEv9PunjYlYWt40-24" style="edgeStyle=orthogonalEdgeStyle;rounded=0;orthogonalLoop=1;jettySize=auto;html=1;" parent="1" source="oydoxWEv9PunjYlYWt40-13" target="oydoxWEv9PunjYlYWt40-22" edge="1">
          <mxGeometry relative="1" as="geometry" />
        </mxCell>
        <mxCell id="oydoxWEv9PunjYlYWt40-13" value="" style="rounded=0;whiteSpace=wrap;html=1;fillColor=#808080;" parent="1" vertex="1">
          <mxGeometry x="610" y="900" width="630" height="240" as="geometry" />
        </mxCell>
        <mxCell id="oydoxWEv9PunjYlYWt40-15" value="SILVER" style="text;html=1;strokeColor=none;fillColor=none;align=center;verticalAlign=middle;whiteSpace=wrap;rounded=0;" parent="1" vertex="1">
          <mxGeometry x="1140" y="910" width="60" height="30" as="geometry" />
        </mxCell>
        <mxCell id="oydoxWEv9PunjYlYWt40-17" value="Conversão mono/stereo" style="rounded=0;whiteSpace=wrap;html=1;fillColor=#0050ef;fontColor=#ffffff;strokeColor=#001DBC;" parent="1" vertex="1">
          <mxGeometry x="782.5" y="947" width="285" height="30" as="geometry" />
        </mxCell>
        <mxCell id="oydoxWEv9PunjYlYWt40-18" value="Coverteu a qtd. amostras para tempo" style="rounded=0;whiteSpace=wrap;html=1;fillColor=#0050ef;fontColor=#ffffff;strokeColor=#001DBC;" parent="1" vertex="1">
          <mxGeometry x="782.5" y="987" width="285" height="30" as="geometry" />
        </mxCell>
        <mxCell id="oydoxWEv9PunjYlYWt40-19" value="FFT" style="rounded=0;whiteSpace=wrap;html=1;fillColor=#0050ef;fontColor=#ffffff;strokeColor=#001DBC;" parent="1" vertex="1">
          <mxGeometry x="782.5" y="1027" width="285" height="30" as="geometry" />
        </mxCell>
        <mxCell id="oydoxWEv9PunjYlYWt40-20" value="Criou a HASHTAG" style="rounded=0;whiteSpace=wrap;html=1;fillColor=#0050ef;fontColor=#ffffff;strokeColor=#001DBC;" parent="1" vertex="1">
          <mxGeometry x="782.5" y="1067" width="285" height="30" as="geometry" />
        </mxCell>
        <mxCell id="oydoxWEv9PunjYlYWt40-22" value="" style="rounded=0;whiteSpace=wrap;html=1;fillColor=#FFFF33;" parent="1" vertex="1">
          <mxGeometry x="610" y="1210" width="630" height="180" as="geometry" />
        </mxCell>
        <mxCell id="oydoxWEv9PunjYlYWt40-23" value="GOLD" style="text;html=1;strokeColor=none;fillColor=none;align=center;verticalAlign=middle;whiteSpace=wrap;rounded=0;fontColor=#000000;" parent="1" vertex="1">
          <mxGeometry x="1140" y="1220" width="60" height="30" as="geometry" />
        </mxCell>
        <mxCell id="oydoxWEv9PunjYlYWt40-25" value="HASHTAG (1 Registro na Hashtable)" style="rounded=0;whiteSpace=wrap;html=1;fillColor=#0050ef;fontColor=#ffffff;strokeColor=#001DBC;" parent="1" vertex="1">
          <mxGeometry x="782.5" y="1280" width="285" height="30" as="geometry" />
        </mxCell>
        <mxCell id="oydoxWEv9PunjYlYWt40-27" value="" style="whiteSpace=wrap;html=1;aspect=fixed;" parent="1" vertex="1">
          <mxGeometry x="1580" y="755" width="430.5" height="430.5" as="geometry" />
        </mxCell>
        <mxCell id="oydoxWEv9PunjYlYWt40-28" value="" style="sketch=0;points=[[0,0,0],[0.25,0,0],[0.5,0,0],[0.75,0,0],[1,0,0],[0,1,0],[0.25,1,0],[0.5,1,0],[0.75,1,0],[1,1,0],[0,0.25,0],[0,0.5,0],[0,0.75,0],[1,0.25,0],[1,0.5,0],[1,0.75,0]];outlineConnect=0;fontColor=#232F3E;gradientColor=#60A337;gradientDirection=north;fillColor=#277116;strokeColor=#ffffff;dashed=0;verticalLabelPosition=bottom;verticalAlign=top;align=center;html=1;fontSize=12;fontStyle=0;aspect=fixed;shape=mxgraph.aws4.resourceIcon;resIcon=mxgraph.aws4.s3;" parent="1" vertex="1">
          <mxGeometry x="1550" y="695" width="78" height="78" as="geometry" />
        </mxCell>
        <mxCell id="oydoxWEv9PunjYlYWt40-29" value="/BRONZE" style="rounded=0;whiteSpace=wrap;html=1;fillColor=#0050ef;fontColor=#ffffff;strokeColor=#001DBC;" parent="1" vertex="1">
          <mxGeometry x="1660" y="1027" width="285" height="60" as="geometry" />
        </mxCell>
        <mxCell id="oydoxWEv9PunjYlYWt40-30" value="/SILVER" style="rounded=0;whiteSpace=wrap;html=1;fillColor=#0050ef;fontColor=#ffffff;strokeColor=#001DBC;" parent="1" vertex="1">
          <mxGeometry x="1660" y="1096.5" width="285" height="60" as="geometry" />
        </mxCell>
        <mxCell id="oydoxWEv9PunjYlYWt40-38" style="edgeStyle=orthogonalEdgeStyle;rounded=0;orthogonalLoop=1;jettySize=auto;html=1;" parent="1" source="oydoxWEv9PunjYlYWt40-32" target="oydoxWEv9PunjYlYWt40-37" edge="1">
          <mxGeometry relative="1" as="geometry" />
        </mxCell>
        <mxCell id="oydoxWEv9PunjYlYWt40-32" value="/MUSICA_RAW" style="rounded=0;whiteSpace=wrap;html=1;fillColor=#0050ef;fontColor=#ffffff;strokeColor=#001DBC;" parent="1" vertex="1">
          <mxGeometry x="1660" y="770" width="285" height="60" as="geometry" />
        </mxCell>
        <mxCell id="oydoxWEv9PunjYlYWt40-37" value="EX: 204_racionais.mp3" style="rounded=0;whiteSpace=wrap;html=1;" parent="1" vertex="1">
          <mxGeometry x="1790" y="635" width="250" height="60" as="geometry" />
        </mxCell>
        <mxCell id="oydoxWEv9PunjYlYWt40-40" value="204 seria o ID do cliente que viria através da API Gateway como variável de ambiente para que seja feita a relação na hashtable." style="text;html=1;strokeColor=none;fillColor=none;align=center;verticalAlign=middle;whiteSpace=wrap;rounded=0;" parent="1" vertex="1">
          <mxGeometry x="1830" y="593" width="345" height="30" as="geometry" />
        </mxCell>
        <mxCell id="oydoxWEv9PunjYlYWt40-45" style="edgeStyle=orthogonalEdgeStyle;rounded=0;orthogonalLoop=1;jettySize=auto;html=1;" parent="1" source="oydoxWEv9PunjYlYWt40-44" target="oydoxWEv9PunjYlYWt40-28" edge="1">
          <mxGeometry relative="1" as="geometry" />
        </mxCell>
        <mxCell id="oydoxWEv9PunjYlYWt40-44" value="" style="sketch=0;points=[[0,0,0],[0.25,0,0],[0.5,0,0],[0.75,0,0],[1,0,0],[0,1,0],[0.25,1,0],[0.5,1,0],[0.75,1,0],[1,1,0],[0,0.25,0],[0,0.5,0],[0,0.75,0],[1,0.25,0],[1,0.5,0],[1,0.75,0]];outlineConnect=0;fontColor=#232F3E;gradientColor=#FF4F8B;gradientDirection=north;fillColor=#BC1356;strokeColor=#ffffff;dashed=0;verticalLabelPosition=bottom;verticalAlign=top;align=center;html=1;fontSize=12;fontStyle=0;aspect=fixed;shape=mxgraph.aws4.resourceIcon;resIcon=mxgraph.aws4.api_gateway;" parent="1" vertex="1">
          <mxGeometry x="1539" y="90" width="100" height="100" as="geometry" />
        </mxCell>
        <mxCell id="oydoxWEv9PunjYlYWt40-62" style="edgeStyle=orthogonalEdgeStyle;rounded=0;orthogonalLoop=1;jettySize=auto;html=1;entryX=1;entryY=0.5;entryDx=0;entryDy=0;entryPerimeter=0;" parent="1" source="oydoxWEv9PunjYlYWt40-48" target="oydoxWEv9PunjYlYWt40-44" edge="1">
          <mxGeometry relative="1" as="geometry">
            <Array as="points">
              <mxPoint x="2450" y="1762" />
              <mxPoint x="2450" y="140" />
            </Array>
          </mxGeometry>
        </mxCell>
        <mxCell id="oydoxWEv9PunjYlYWt40-48" value="" style="rounded=0;whiteSpace=wrap;html=1;" parent="1" vertex="1">
          <mxGeometry x="520" y="1624" width="820" height="276" as="geometry" />
        </mxCell>
        <mxCell id="oydoxWEv9PunjYlYWt40-46" value="" style="outlineConnect=0;dashed=0;verticalLabelPosition=bottom;verticalAlign=top;align=center;html=1;shape=mxgraph.aws3.rds;fillColor=#2E73B8;gradientColor=none;" parent="1" vertex="1">
          <mxGeometry x="489.99999999999994" y="1580" width="72" height="81" as="geometry" />
        </mxCell>
        <mxCell id="oydoxWEv9PunjYlYWt40-34" value="{HASHTAG} / NOME DA MUSICA / IDCLIENTE" style="rounded=0;whiteSpace=wrap;html=1;" parent="1" vertex="1">
          <mxGeometry x="920" y="1694" width="410" height="60" as="geometry" />
        </mxCell>
        <mxCell id="oydoxWEv9PunjYlYWt40-35" value="hashtable" style="text;html=1;strokeColor=none;fillColor=none;align=center;verticalAlign=middle;whiteSpace=wrap;rounded=0;" parent="1" vertex="1">
          <mxGeometry x="1070" y="1640" width="110" height="70" as="geometry" />
        </mxCell>
        <mxCell id="oydoxWEv9PunjYlYWt40-54" style="edgeStyle=orthogonalEdgeStyle;rounded=0;orthogonalLoop=1;jettySize=auto;html=1;" parent="1" source="oydoxWEv9PunjYlYWt40-50" target="oydoxWEv9PunjYlYWt40-52" edge="1">
          <mxGeometry relative="1" as="geometry" />
        </mxCell>
        <mxCell id="oydoxWEv9PunjYlYWt40-50" value="/LETRA_RAW" style="rounded=0;whiteSpace=wrap;html=1;fillColor=#0050ef;fontColor=#ffffff;strokeColor=#001DBC;" parent="1" vertex="1">
          <mxGeometry x="1660" y="850" width="285" height="60" as="geometry" />
        </mxCell>
        <mxCell id="oydoxWEv9PunjYlYWt40-52" value="EX: 204_racionais.txt" style="rounded=0;whiteSpace=wrap;html=1;" parent="1" vertex="1">
          <mxGeometry x="2030" y="852" width="250" height="60" as="geometry" />
        </mxCell>
        <mxCell id="oydoxWEv9PunjYlYWt40-53" value="204 seria o ID do cliente que viria através da API Gateway como variável de ambiente para que seja feita a relação." style="text;html=1;strokeColor=none;fillColor=none;align=center;verticalAlign=middle;whiteSpace=wrap;rounded=0;" parent="1" vertex="1">
          <mxGeometry x="2070" y="810" width="345" height="30" as="geometry" />
        </mxCell>
        <mxCell id="oydoxWEv9PunjYlYWt40-59" style="edgeStyle=orthogonalEdgeStyle;rounded=0;orthogonalLoop=1;jettySize=auto;html=1;" parent="1" source="oydoxWEv9PunjYlYWt40-55" target="oydoxWEv9PunjYlYWt40-48" edge="1">
          <mxGeometry relative="1" as="geometry" />
        </mxCell>
        <mxCell id="oydoxWEv9PunjYlYWt40-55" value="" style="whiteSpace=wrap;html=1;aspect=fixed;" parent="1" vertex="1">
          <mxGeometry x="1720" y="1282.38" width="360" height="360" as="geometry" />
        </mxCell>
        <mxCell id="oydoxWEv9PunjYlYWt40-56" value="" style="sketch=0;points=[[0,0,0],[0.25,0,0],[0.5,0,0],[0.75,0,0],[1,0,0],[0,1,0],[0.25,1,0],[0.5,1,0],[0.75,1,0],[1,1,0],[0,0.25,0],[0,0.5,0],[0,0.75,0],[1,0.25,0],[1,0.5,0],[1,0.75,0]];outlineConnect=0;fontColor=#232F3E;gradientColor=#60A337;gradientDirection=north;fillColor=#277116;strokeColor=#ffffff;dashed=0;verticalLabelPosition=bottom;verticalAlign=top;align=center;html=1;fontSize=12;fontStyle=0;aspect=fixed;shape=mxgraph.aws4.resourceIcon;resIcon=mxgraph.aws4.s3;" parent="1" vertex="1">
          <mxGeometry x="1670" y="1220" width="78" height="78" as="geometry" />
        </mxCell>
        <mxCell id="oydoxWEv9PunjYlYWt40-57" value="/MUSICA_TRUSTED" style="rounded=0;whiteSpace=wrap;html=1;fillColor=#0050ef;fontColor=#ffffff;strokeColor=#001DBC;" parent="1" vertex="1">
          <mxGeometry x="1757.5" y="1404" width="285" height="60" as="geometry" />
        </mxCell>
        <mxCell id="oydoxWEv9PunjYlYWt40-58" value="/LETRA_TRUSTED" style="rounded=0;whiteSpace=wrap;html=1;fillColor=#0050ef;fontColor=#ffffff;strokeColor=#001DBC;" parent="1" vertex="1">
          <mxGeometry x="1757.5" y="1484" width="285" height="60" as="geometry" />
        </mxCell>
        <mxCell id="oydoxWEv9PunjYlYWt40-60" value="tbclient" style="text;html=1;strokeColor=none;fillColor=none;align=center;verticalAlign=middle;whiteSpace=wrap;rounded=0;" parent="1" vertex="1">
          <mxGeometry x="610" y="1661" width="110" height="70" as="geometry" />
        </mxCell>
        <mxCell id="oydoxWEv9PunjYlYWt40-61" value="tbanalytics" style="text;html=1;strokeColor=none;fillColor=none;align=center;verticalAlign=middle;whiteSpace=wrap;rounded=0;" parent="1" vertex="1">
          <mxGeometry x="820" y="1810" width="110" height="70" as="geometry" />
        </mxCell>
        <mxCell id="oydoxWEv9PunjYlYWt40-64" value="&lt;font style=&quot;font-size: 30px;&quot;&gt;&lt;span style=&quot;font-size: 30px;&quot;&gt;FALTA:&lt;/span&gt;&lt;br&gt;&lt;span style=&quot;font-size: 30px;&quot;&gt;- Site (Figma)&lt;/span&gt;&lt;br&gt;&lt;span style=&quot;font-size: 30px;&quot;&gt;- Modelos no fluxo - Lambda (Apriori/DTW/SVM)&lt;br&gt;&lt;/span&gt;- Tabelas RDS&lt;br&gt;&lt;font style=&quot;font-size: 24px;&quot;&gt;* Entender como funciona para texto (RGA)&lt;/font&gt;&lt;br&gt;&lt;/font&gt;" style="rounded=0;whiteSpace=wrap;html=1;" parent="1" vertex="1">
          <mxGeometry x="890" y="60" width="450" height="340" as="geometry" />
        </mxCell>
      </root>
    </mxGraphModel>
  </diagram>
</mxfile>
